<?xml version="1.0" standalone="no"?>
<!DOCTYPE svg PUBLIC "-//W3C//DTD SVG 20010904//EN"
 "http://www.w3.org/TR/2001/REC-SVG-20010904/DTD/svg10.dtd">
<svg version="1.0" xmlns="http://www.w3.org/2000/svg"
 width="512.000000pt" height="512.000000pt" viewBox="0 0 512.000000 512.000000"
 preserveAspectRatio="xMidYMid meet">
<metadata>
Created by potrace 1.11, written by Peter Selinger 2001-2013
</metadata>
<g transform="translate(0.000000,512.000000) scale(0.100000,-0.100000)"
fill="#000000" stroke="none">
<path d="M0 3839 l0 -1281 1410 4 c776 2 1409 0 1408 -3 -7 -15 -240 -225
-403 -363 -336 -284 -390 -331 -525 -466 -75 -74 -166 -173 -203 -220 -184
-230 -297 -482 -297 -662 l0 -68 1180 0 1180 0 0 210 0 210 -876 2 -876 3 63
85 c89 121 205 232 524 505 374 319 522 454 692 629 l143 146 850 0 850 0 0
1275 0 1275 -2560 0 -2560 0 0 -1281z"/>
</g>
</svg>
